<svg width="54" height="54" viewBox="0 0 54 54" fill="none" xmlns="http://www.w3.org/2000/svg">
<path d="M33.92 18.1067L22.48 29.5733L18.08 25.1733C17.841 24.8942 17.5468 24.6675 17.2159 24.5074C16.8851 24.3473 16.5247 24.2574 16.1575 24.2432C15.7902 24.229 15.424 24.2909 15.0818 24.425C14.7396 24.559 14.4288 24.7624 14.1689 25.0223C13.9091 25.2821 13.7057 25.5929 13.5716 25.9351C13.4376 26.2773 13.3757 26.6436 13.3899 27.0108C13.4041 27.3781 13.494 27.7384 13.6541 28.0693C13.8141 28.4001 14.0409 28.6943 14.32 28.9333L20.5867 35.2267C20.8359 35.4738 21.1314 35.6693 21.4563 35.8021C21.7812 35.9348 22.1291 36.002 22.48 36C23.1796 35.9971 23.85 35.7193 24.3467 35.2267L37.68 21.8933C37.93 21.6454 38.1283 21.3505 38.2637 21.0255C38.3991 20.7006 38.4688 20.352 38.4688 20C38.4688 19.648 38.3991 19.2994 38.2637 18.9745C38.1283 18.6495 37.93 18.3546 37.68 18.1067C37.1804 17.61 36.5045 17.3312 35.8 17.3312C35.0955 17.3312 34.4196 17.61 33.92 18.1067ZM26.6667 0C21.3925 0 16.2368 1.56397 11.8515 4.49414C7.46616 7.42431 4.04823 11.5891 2.02989 16.4618C0.0115542 21.3345 -0.516535 26.6962 0.512405 31.8691C1.54134 37.0419 4.0811 41.7934 7.8105 45.5229C11.5399 49.2523 16.2914 51.792 21.4643 52.8209C26.6371 53.8499 31.9989 53.3218 36.8716 51.3035C41.7443 49.2851 45.909 45.8672 48.8392 41.4819C51.7694 37.0966 53.3333 31.9408 53.3333 26.6667C53.3333 23.1648 52.6436 19.6971 51.3035 16.4618C49.9633 13.2264 47.9991 10.2867 45.5229 7.81049C43.0466 5.33426 40.1069 3.37 36.8716 2.02988C33.6362 0.689754 30.1686 0 26.6667 0ZM26.6667 48C22.4473 48 18.3228 46.7488 14.8145 44.4047C11.3063 42.0605 8.57192 38.7287 6.95725 34.8306C5.34258 30.9324 4.92011 26.643 5.74326 22.5047C6.56641 18.3665 8.59821 14.5652 11.5817 11.5817C14.5653 8.5982 18.3665 6.5664 22.5048 5.74325C26.643 4.9201 30.9324 5.34257 34.8306 6.95724C38.7287 8.57191 42.0606 11.3063 44.4047 14.8145C46.7488 18.3228 48 22.4473 48 26.6667C48 32.3246 45.7524 37.7508 41.7516 41.7516C37.7509 45.7524 32.3246 48 26.6667 48Z" fill="#0B7E1E"/>
</svg>
