<svg width="22" height="22" viewBox="0 0 22 22" fill="none" xmlns="http://www.w3.org/2000/svg">
<path d="M10.75 18.25C14.8921 18.25 18.25 14.8921 18.25 10.75C18.25 6.60786 14.8921 3.25 10.75 3.25C6.60786 3.25 3.25 6.60786 3.25 10.75C3.25 14.8921 6.60786 18.25 10.75 18.25Z" fill="#7D7D7D"/>
<path d="M20.75 11.5C20.5511 11.5 20.3603 11.421 20.2197 11.2803C20.079 11.1397 20 10.9489 20 10.75C20.0003 10.2211 19.9551 9.69316 19.865 9.172C19.8483 9.07489 19.8508 8.97543 19.8725 8.8793C19.8942 8.78318 19.9346 8.69226 19.9914 8.61175C20.0483 8.53125 20.1204 8.46272 20.2037 8.41009C20.287 8.35745 20.3799 8.32175 20.477 8.305C20.6731 8.27119 20.8747 8.31667 21.0372 8.43144C21.1178 8.48827 21.1863 8.5604 21.2389 8.64371C21.2915 8.72703 21.3273 8.81989 21.344 8.917C21.4476 9.52251 21.4998 10.1357 21.5 10.75C21.5 10.9489 21.421 11.1397 21.2803 11.2803C21.1397 11.421 20.9489 11.5 20.75 11.5ZM20.07 7.871C19.9188 7.87144 19.771 7.8261 19.6461 7.74096C19.5212 7.65583 19.4249 7.53487 19.37 7.394C19.1454 6.81977 18.8647 6.2691 18.532 5.75C18.4787 5.66714 18.4423 5.5746 18.4249 5.47766C18.4074 5.38073 18.4091 5.2813 18.4301 5.18505C18.451 5.0888 18.4907 4.99762 18.5469 4.91671C18.6031 4.83581 18.6746 4.76676 18.7575 4.7135C18.8404 4.66025 18.9329 4.62384 19.0298 4.60636C19.1268 4.58887 19.2262 4.59065 19.3225 4.61159C19.4187 4.63253 19.5099 4.67222 19.5908 4.7284C19.6717 4.78458 19.7407 4.85614 19.794 4.939C20.1819 5.54189 20.5086 6.18208 20.769 6.85C20.8412 7.03526 20.8369 7.24161 20.757 7.42369C20.6771 7.60577 20.5282 7.74868 20.343 7.821C20.2558 7.85413 20.1633 7.87108 20.07 7.871ZM17.19 3.85C17.0131 3.85005 16.842 3.78733 16.707 3.673C16.2355 3.27497 15.7253 2.92522 15.184 2.629C15.0095 2.53353 14.8801 2.37263 14.8242 2.18172C14.7683 1.99081 14.7905 1.78552 14.886 1.611C14.9815 1.43649 15.1424 1.30705 15.3333 1.25117C15.5242 1.19528 15.7295 1.21753 15.904 1.313C16.5331 1.65716 17.126 2.06353 17.674 2.526C17.7918 2.62509 17.8763 2.75804 17.916 2.9068C17.9556 3.05556 17.9485 3.21291 17.8957 3.35751C17.8428 3.5021 17.7468 3.62693 17.6205 3.71504C17.4943 3.80314 17.344 3.85027 17.19 3.85ZM13.704 1.944C13.6287 1.94383 13.5539 1.93237 13.482 1.91C12.597 1.63722 11.6761 1.49901 10.75 1.5C10.5511 1.5 10.3603 1.42099 10.2197 1.28033C10.079 1.13968 10 0.948916 10 0.750003C10 0.551091 10.079 0.360325 10.2197 0.219673C10.3603 0.0790209 10.5511 3.21869e-06 10.75 3.21869e-06C11.8266 -0.000830501 12.8973 0.160306 13.926 0.478003C14.0971 0.531357 14.2435 0.644227 14.3385 0.79617C14.4336 0.948113 14.4711 1.12908 14.4443 1.3063C14.4175 1.48352 14.328 1.64526 14.1922 1.76224C14.0564 1.87922 13.8832 1.9437 13.704 1.944Z" fill="#7D7D7D"/>
<path d="M10.75 21.5C7.89892 21.5 5.16462 20.3674 3.1486 18.3514C1.13259 16.3354 0 13.6011 0 10.75C0 7.89892 1.13259 5.16462 3.1486 3.1486C5.16462 1.13259 7.89892 4.24844e-08 10.75 0C10.9489 0 11.1397 0.0790177 11.2803 0.21967C11.421 0.360322 11.5 0.551088 11.5 0.75C11.5 0.948912 11.421 1.13968 11.2803 1.28033C11.1397 1.42098 10.9489 1.5 10.75 1.5C8.92052 1.5 7.13213 2.0425 5.61098 3.05891C4.08982 4.07531 2.90423 5.51996 2.20411 7.21018C1.504 8.90039 1.32082 10.7603 1.67774 12.5546C2.03465 14.3489 2.91563 15.9971 4.20926 17.2907C5.5029 18.5844 7.15109 19.4654 8.94541 19.8223C10.7397 20.1792 12.5996 19.996 14.2898 19.2959C15.98 18.5958 17.4247 17.4102 18.4411 15.889C19.4575 14.3679 20 12.5795 20 10.75C20 10.5511 20.079 10.3603 20.2197 10.2197C20.3603 10.079 20.5511 10 20.75 10C20.9489 10 21.1397 10.079 21.2803 10.2197C21.421 10.3603 21.5 10.5511 21.5 10.75C21.4968 13.6001 20.3632 16.3326 18.3479 18.3479C16.3326 20.3632 13.6001 21.4968 10.75 21.5Z" fill="#7D7D7D"/>
<path d="M14.75 14.5C14.588 14.4999 14.4305 14.4473 14.301 14.35L10.301 11.35C10.2079 11.2801 10.1323 11.1896 10.0802 11.0854C10.0281 10.9813 10.001 10.8664 10.001 10.75V5.75C10.001 5.55109 10.08 5.36032 10.2207 5.21967C10.3613 5.07902 10.5521 5 10.751 5C10.9499 5 11.1407 5.07902 11.2813 5.21967C11.422 5.36032 11.501 5.55109 11.501 5.75V10.375L15.201 13.15C15.327 13.2445 15.4201 13.3763 15.467 13.5266C15.5139 13.677 15.5123 13.8383 15.4624 13.9876C15.4125 14.137 15.3168 14.2669 15.1889 14.3589C15.0611 14.4508 14.9075 14.5002 14.75 14.5Z" fill="white"/>
</svg>
