<svg width="37" height="16" viewBox="0 0 37 16" fill="none" xmlns="http://www.w3.org/2000/svg">
<path d="M10.9757 11.9106H12.9257C13.1464 11.9106 13.2936 11.7636 13.2936 11.543V4.6687C13.2936 4.44813 13.1464 4.3011 12.9257 4.3011H11.0861C10.9021 4.3011 10.7182 4.44813 10.7182 4.6687L10.6078 11.543C10.6078 11.7636 10.7917 11.9106 10.9757 11.9106Z" fill="white"/>
<path d="M6.25047 4.66638L5.25709 7.8301L2.86564 0.257327C2.82885 0.110283 2.68168 0 2.53451 0H0.363801C0.106261 0 -0.0776976 0.257327 0.0326776 0.477892L3.96938 11.69C4.0062 11.837 4.15336 11.9473 4.30052 11.9473H6.25047C6.39763 11.9473 6.54482 11.837 6.58161 11.69C6.98631 10.5504 7.45369 9.07406 8.26387 6.96758C9.07406 4.8611 10.0926 4.52167 10.6076 4.3011L6.58949 4.32098C6.44233 4.35773 6.28728 4.48259 6.25047 4.66638Z" fill="white"/>
<path d="M14.5639 11.9105C14.3431 11.9105 14.1959 11.7267 14.1959 11.5429C14.2328 11.0283 14.2328 10.2563 14.2328 9.52105V0.514612C14.2328 0.294048 14.3799 0.147004 14.6007 0.147004H16.477C16.6978 0.147004 16.8449 0.294048 16.8449 0.514612V4.88917H16.8817C17.3968 4.15394 18.3166 3.67606 19.5676 3.67606C21.6279 3.67606 23.2835 5.22001 23.2467 7.79328C23.2467 10.7342 21.1864 12.1311 19.1996 12.1311C18.1695 12.1311 17.1393 11.7635 16.5138 10.7342H16.477L16.4035 11.5797C16.4035 11.7635 16.2195 11.9105 16.0355 11.9105H14.5639ZM16.8449 8.30795C16.8449 8.45498 16.8449 8.56526 16.8817 8.71233C16.8817 8.74907 16.8817 8.74907 16.8817 8.78582C17.0657 9.44752 17.728 10.0725 18.611 10.0725C19.7883 10.0725 20.5609 9.26374 20.5609 7.86682C20.5609 6.65368 19.9354 5.66114 18.611 5.66114C17.8015 5.66114 17.0657 6.21255 16.8817 7.05806C16.8449 7.20512 16.8449 7.35216 16.8449 7.53597V8.30795Z" fill="white"/>
<path d="M24.4067 0.147004H26.2831C26.5038 0.147004 26.651 0.294048 26.651 0.514612V11.5797C26.651 11.8002 26.5038 11.9473 26.2831 11.9473H24.4067C24.1859 11.9473 24.0388 11.8002 24.0388 11.5797V0.514612C24.0388 0.294048 24.2227 0.147004 24.4067 0.147004Z" fill="white"/>
<path d="M29.8642 3.85991C30.0114 3.85991 30.1585 3.97019 30.1954 4.11722L31.4464 7.75657C31.5935 8.23445 31.7772 8.89614 31.9244 9.30052H31.9613C32.1084 8.85939 32.2556 8.1977 32.3661 7.75657L33.3963 4.15397C33.4329 4.00694 33.5801 3.89666 33.7641 3.89666H35.8246C36.0819 3.89666 36.266 4.15397 36.1555 4.41132L34.3896 8.89614C32.9546 12.6825 32.1454 13.8221 31.1887 14.5941C30.4528 15.1823 29.6435 15.4396 28.9812 15.5499C28.7972 15.5866 28.6132 15.4396 28.5765 15.2558L28.2454 13.7486C28.2085 13.5648 28.3189 13.3442 28.5029 13.3075C28.7236 13.2339 28.9812 13.1604 29.2755 13.0134C29.6802 12.8296 30.1585 12.4252 30.4161 11.9841C30.4897 11.8738 30.5633 11.7267 30.5633 11.6164C30.5633 11.5062 30.5263 11.3959 30.4161 11.1753L27.4359 4.33779C27.3255 4.08047 27.5095 3.82313 27.7671 3.82313H29.8642V3.85991Z" fill="white"/>
<path d="M8.24075 0.10791C7.94639 0.10791 7.65207 0.181432 7.43131 0.365237C7.17377 0.512279 6.98983 0.769607 6.87945 1.02693C6.76907 1.28426 6.73228 1.57835 6.80585 1.87244C6.87945 2.16653 6.98983 2.42385 7.21058 2.64442C7.43131 2.86498 7.68885 2.97527 7.98321 3.04879C8.27753 3.12231 8.57185 3.08555 8.8294 2.97527C9.08694 2.86498 9.34448 2.68118 9.49167 2.42385C9.63883 2.16652 9.74921 1.9092 9.74921 1.61511C9.74921 1.43131 9.7124 1.2475 9.63883 1.0637C9.56524 0.879892 9.45486 0.732847 9.3077 0.585802C9.16053 0.43876 9.01337 0.328476 8.8294 0.254954C8.64545 0.144671 8.46151 0.10791 8.24075 0.10791Z" fill="#61BDE4"/>
<path d="M11.9692 0.10791C11.6749 0.10791 11.3806 0.181432 11.1598 0.365237C10.9023 0.512279 10.7183 0.769606 10.608 1.02693C10.4976 1.28426 10.4608 1.57835 10.5344 1.87244C10.6079 2.16652 10.7183 2.42385 10.9391 2.60766C11.1598 2.82822 11.4174 2.9385 11.6749 3.01203C11.9692 3.08555 12.2636 3.04879 12.5211 2.9385C12.7787 2.82822 13.0362 2.64442 13.1834 2.38709C13.3305 2.12976 13.4409 1.87244 13.4409 1.57835C13.4409 1.17398 13.2938 0.806369 12.9994 0.549042C12.7419 0.254954 12.3372 0.10791 11.9692 0.10791Z" fill="#DCAD4A"/>
</svg>
